<?xml version="1.0" encoding="UTF-8"?>
<svg xmlns="http://www.w3.org/2000/svg" xmlns:xlink="http://www.w3.org/1999/xlink" width="16px" height="16px" viewBox="0 0 16 16" version="1.1">
<g id="surface1">
<path style=" stroke:none;fill-rule:nonzero;fill:rgb(0%,0%,0%);fill-opacity:1;" d="M 8 1.601562 C 4.464844 1.601562 1.601562 4.464844 1.601562 8 C 1.601562 11 3.664062 13.507812 6.449219 14.203125 C 6.417969 14.117188 6.398438 14.015625 6.398438 13.890625 L 6.398438 12.796875 C 6.140625 12.796875 5.703125 12.796875 5.597656 12.796875 C 5.15625 12.796875 4.769531 12.609375 4.578125 12.257812 C 4.371094 11.871094 4.332031 11.277344 3.8125 10.914062 C 3.660156 10.792969 3.777344 10.652344 3.957031 10.671875 C 4.28125 10.765625 4.554688 10.988281 4.8125 11.324219 C 5.066406 11.65625 5.1875 11.734375 5.664062 11.734375 C 5.894531 11.734375 6.238281 11.71875 6.5625 11.667969 C 6.738281 11.226562 7.042969 10.816406 7.410156 10.621094 C 5.28125 10.402344 4.261719 9.34375 4.261719 7.902344 C 4.261719 7.285156 4.527344 6.683594 4.976562 6.179688 C 4.828125 5.679688 4.644531 4.65625 5.03125 4.265625 C 5.992188 4.265625 6.570312 4.886719 6.710938 5.054688 C 7.1875 4.894531 7.710938 4.800781 8.265625 4.800781 C 8.816406 4.800781 9.34375 4.894531 9.824219 5.058594 C 9.960938 4.890625 10.539062 4.265625 11.5 4.265625 C 11.890625 4.65625 11.703125 5.683594 11.554688 6.183594 C 12 6.6875 12.265625 7.285156 12.265625 7.902344 C 12.265625 9.34375 11.25 10.402344 9.121094 10.621094 C 9.707031 10.929688 10.132812 11.785156 10.132812 12.433594 L 10.132812 13.890625 C 10.132812 13.945312 10.121094 13.988281 10.113281 14.035156 C 12.609375 13.160156 14.398438 10.792969 14.398438 8 C 14.398438 4.464844 11.535156 1.601562 8 1.601562 Z M 8 1.601562 "/>
</g>
</svg>
