<?xml version="1.0" standalone="no"?>
<!DOCTYPE svg PUBLIC "-//W3C//DTD SVG 20010904//EN"
 "http://www.w3.org/TR/2001/REC-SVG-20010904/DTD/svg10.dtd">
<svg version="1.0" xmlns="http://www.w3.org/2000/svg"
 width="474.000000pt" height="355.000000pt" viewBox="0 0 474.000000 355.000000"
 preserveAspectRatio="xMidYMid meet">

<g transform="translate(0.000000,355.000000) scale(0.100000,-0.100000)"
fill="#000000" stroke="none">
<path d="M2890 2172 c0 -7 5 -12 10 -12 6 0 10 -5 10 -11 0 -6 -6 -9 -14 -6
-7 3 -13 0 -13 -6 0 -7 -1 -25 -2 -42 -1 -23 -4 -26 -11 -15 -20 32 -21 -2 -1
-45 11 -24 21 -51 21 -59 0 -8 4 -17 9 -20 5 -3 9 -23 9 -43 0 -33 -1 -35 -11
-17 -10 17 -20 20 -52 16 -22 -2 -47 -9 -55 -17 -8 -7 -28 -13 -45 -13 -16 0
-50 -5 -75 -11 -69 -16 -101 -13 -127 11 -22 20 -23 21 -24 2 -1 -12 -4 -8 -9
11 -6 25 -8 22 -9 -23 -1 -48 5 -64 49 -139 42 -71 50 -93 50 -134 0 -27 -3
-49 -8 -49 -4 0 -31 16 -60 35 -44 30 -52 40 -53 68 l-1 32 -12 -35 c-7 -19
-21 -37 -30 -38 -16 -3 -17 -11 -11 -60 10 -91 11 -92 59 -92 36 0 44 4 60 31
18 30 83 68 118 69 11 0 15 5 12 15 -10 25 5 64 32 81 14 10 50 18 82 20 31 1
69 6 85 9 33 9 84 -11 92 -35 7 -24 56 -45 66 -29 11 19 21 155 14 202 -12 79
-28 142 -53 205 -21 54 -28 63 -45 58 -24 -6 -60 11 -52 25 4 5 11 7 16 4 5
-4 6 2 2 12 -6 16 -4 16 17 -2 l23 -20 -11 20 c-14 27 -52 61 -52 47z m-63
-324 c-3 -8 -6 -5 -6 6 -1 11 2 17 5 13 3 -3 4 -12 1 -19z m59 -12 c18 -19 18
-26 -1 -26 -8 0 -15 -5 -15 -11 0 -6 -7 -3 -16 5 -12 13 -13 18 -2 30 16 19
16 19 34 2z"/>
<path d="M1806 2141 c-4 -5 -1 -22 4 -37 6 -15 8 -34 5 -42 -3 -9 0 -19 7 -23
8 -5 5 -8 -10 -6 -23 1 -29 12 -12 22 6 3 10 14 10 23 0 13 -5 12 -20 -8 -24
-31 -26 -19 -2 17 10 16 12 24 4 19 -17 -10 -58 -104 -79 -180 -17 -64 -24
-240 -10 -289 7 -25 10 -26 30 -16 12 7 34 26 49 42 25 26 32 28 70 22 24 -3
61 -7 83 -9 78 -4 102 -15 121 -54 10 -20 17 -42 16 -48 -1 -6 17 -17 40 -23
31 -8 51 -22 73 -51 26 -34 35 -39 71 -40 48 0 50 3 60 88 6 53 4 61 -11 64
-10 1 -24 19 -31 38 -12 34 -13 34 -13 8 -1 -16 -1 -31 -2 -35 0 -9 -99 -72
-111 -73 -5 0 -8 22 -8 49 0 42 8 63 50 132 48 79 50 85 50 153 -1 68 -1 70
-15 41 -7 -16 -14 -25 -14 -20 -1 15 -363 8 -373 -8 -12 -18 3 62 19 101 7 17
10 32 6 32 -5 0 -3 4 2 8 17 12 36 52 25 52 -5 0 -10 -4 -10 -10 0 -5 -7 -10
-15 -10 -8 0 -15 -4 -15 -10 0 -5 -5 -10 -11 -10 -6 0 -1 14 11 30 23 32 17
42 -7 13 -14 -17 -14 -17 -9 0 3 10 2 16 -3 13 -11 -7 -23 22 -15 35 3 5 3 9
0 9 -3 0 -7 -4 -10 -9z m-16 -161 c11 -11 15 -20 9 -20 -7 0 -18 -8 -25 -17
-13 -17 -13 -17 -14 0 0 9 -8 17 -17 17 -15 0 -14 2 3 19 24 25 20 25 44 1z
m307 -116 c12 -3 25 -15 28 -25 8 -23 -11 -59 -30 -59 -8 0 -15 -8 -16 -17 0
-12 -2 -13 -6 -5 -8 21 -55 35 -65 20 -12 -18 -39 18 -31 40 17 47 58 62 120
46z"/>
<path d="M2492 1960 c0 -14 2 -19 5 -12 2 6 2 18 0 25 -3 6 -5 1 -5 -13z"/>
<path d="M2416 1924 c3 -11 -4 -29 -17 -43 -13 -13 -16 -22 -8 -19 24 8 46 55
32 69 -9 9 -11 7 -7 -7z"/>
<path d="M1975 1570 c3 -5 8 -10 11 -10 2 0 4 5 4 10 0 6 -5 10 -11 10 -5 0
-7 -4 -4 -10z"/>
<path d="M2715 1570 c-3 -5 -1 -10 4 -10 6 0 11 5 11 10 0 6 -2 10 -4 10 -3 0
-8 -4 -11 -10z"/>
<path d="M2020 1452 c0 -16 6 -20 25 -19 14 1 25 7 24 12 0 6 -6 9 -11 7 -6
-1 -16 3 -24 9 -11 9 -14 7 -14 -9z"/>
<path d="M1786 1442 c-2 -4 -1 -14 4 -22 7 -11 9 -9 7 8 -1 24 -3 26 -11 14z"/>
<path d="M2618 1436 c-30 -11 -37 -26 -13 -26 8 0 15 4 15 9 0 5 12 11 28 13
17 2 22 5 12 9 -8 3 -27 1 -42 -5z"/>
<path d="M2690 1440 c19 -13 30 -13 30 0 0 6 -10 10 -22 10 -19 0 -20 -2 -8
-10z"/>
<path d="M2935 1434 c3 -13 -1 -26 -11 -35 -15 -12 -16 -11 -11 11 4 14 4 19
1 12 -3 -6 -10 -10 -15 -6 -5 3 -9 0 -9 -6 0 -6 -9 -14 -20 -18 -18 -7 -18 -8
9 -19 28 -10 31 -9 57 28 15 22 24 42 20 46 -3 3 -6 0 -6 -8 0 -12 -2 -11 -11
1 -8 12 -9 11 -4 -6z"/>
<path d="M2120 1420 c0 -5 7 -10 15 -10 8 0 15 5 15 10 0 6 -7 10 -15 10 -8 0
-15 -4 -15 -10z"/>
<path d="M1812 1408 c-9 -9 -8 -16 4 -29 16 -18 44 -16 44 3 0 6 -7 8 -15 5
-8 -4 -17 -1 -21 5 -4 7 -3 8 4 4 8 -5 10 -2 6 8 -7 19 -7 19 -22 4z"/>
<path d="M2015 1370 c3 -5 8 -10 11 -10 2 0 4 5 4 10 0 6 -5 10 -11 10 -5 0
-7 -4 -4 -10z"/>
<path d="M2702 1365 c-16 -19 -3 -19 22 0 14 11 16 15 5 15 -8 -1 -20 -7 -27
-15z"/>
<path d="M2650 1345 c-6 -8 -9 -19 -5 -24 3 -7 0 -8 -10 -5 -22 9 -65 -4 -65
-20 0 -15 47 -39 61 -30 6 3 8 13 4 22 -3 9 -3 13 1 10 12 -13 33 16 22 30 -8
9 -7 11 6 6 12 -5 15 -2 10 10 -8 20 -9 20 -24 1z m-40 -39 c0 -3 -4 -8 -10
-11 -5 -3 -10 -1 -10 4 0 6 5 11 10 11 6 0 10 -2 10 -4z"/>
<path d="M2068 1345 c-11 -12 12 -47 27 -42 8 4 11 -1 8 -13 -7 -27 10 -32 51
-15 20 8 38 15 41 15 3 0 5 2 5 5 0 3 -3 5 -6 4 -4 0 -11 5 -16 13 -7 9 -8 7
-3 -7 5 -16 4 -17 -6 -8 -10 10 -17 9 -32 -5 -19 -16 -19 -16 -13 6 6 19 4 22
-18 22 -14 0 -26 6 -28 16 -2 9 -6 13 -10 9z"/>
<path d="M2532 1311 c-10 -6 -10 -10 1 -20 12 -9 16 -8 20 3 7 19 -4 27 -21
17z"/>
<path d="M1971 1227 c2 -1 13 -9 24 -17 19 -14 19 -14 6 3 -7 9 -18 17 -24 17
-6 0 -8 -1 -6 -3z"/>
<path d="M2028 1213 c7 -3 16 -2 19 1 4 3 -2 6 -13 5 -11 0 -14 -3 -6 -6z"/>
<path d="M2724 1212 c4 -7 1 -12 -8 -12 -8 0 -18 -4 -21 -10 -9 -14 8 -12 30
3 14 11 15 16 5 22 -9 5 -11 4 -6 -3z"/>
<path d="M2028 1188 c9 -9 15 -9 24 0 9 9 7 12 -12 12 -19 0 -21 -3 -12 -12z"/>
</g>
</svg>
